<?xml version="1.0" encoding="UTF-8"?>
<svg id="Capa_1" xmlns="http://www.w3.org/2000/svg" version="1.1" viewBox="0 0 143 40">
  <!-- Generator: Adobe Illustrator 30.0.0, SVG Export Plug-In . SVG Version: 2.1.1 Build 123)  -->
  <defs>
    <style>
      .st0 {
        fill: #65c3a7;
      }

      .st1 {
        fill: #692468;
      }
    </style>
  </defs>
  <path class="st0" d="M59.25,11.76h-17.83v3.58h8.77v23.45h3.98V15.34h5.08s0-3.58,0-3.58ZM41.49,20.46h3.98v18.33h-3.98s0-18.33,0-18.33ZM26.96,11.76v3.98h-9.58v-3.98s9.58,0,9.58,0ZM32.78,11.76l-10.29,21.31h-.64L11.55,11.76h-3.98v27.03h3.98v-17.17h.64l7.11,14.94h5.72l7.11-14.94h.64v17.17h3.98V11.76h-3.98,0Z"/>
  <polygon class="st1" points="73.57 12.54 72.73 12.54 70.47 17.34 68.2 12.54 67.37 12.54 67.37 18.73 68.22 18.73 68.22 14.36 70.27 18.73 70.67 18.73 72.73 14.35 72.73 18.73 73.57 18.73 73.57 12.54"/>
  <path class="st1" d="M76.85,14.75c.42,0,.81.15,1.05.48.15.21.24.46.28.73h-2.66c.04-.27.13-.52.28-.73.24-.33.64-.49,1.05-.48M75.49,16.64h3.6c0-.07,0-.15,0-.23,0-.6-.15-1.21-.54-1.69-.42-.51-1.04-.76-1.72-.76s-1.3.26-1.71.76c-.39.48-.52,1.07-.54,1.69,0,.6.15,1.2.54,1.69.4.51,1.04.75,1.71.76.67.01,1.31-.24,1.75-.75.09-.12.18-.25.26-.39l-.82-.35c-.04.07-.08.14-.13.21-.24.31-.63.48-1.05.48s-.81-.16-1.05-.48c-.2-.26-.28-.6-.31-.94h0Z"/>
  <path class="st1" d="M83.06,17.65c-.25.29-.62.45-1.04.45s-.81-.16-1.05-.51c-.22-.3-.3-.74-.3-1.18s.09-.9.31-1.19c.24-.34.62-.5,1.06-.5.4,0,.78.15,1.01.45.26.31.36.78.36,1.24s-.1.94-.36,1.24M83.32,12.54v1.93c-.37-.33-.88-.52-1.41-.52-.63,0-1.23.26-1.61.74-.37.47-.52,1.09-.52,1.71s.14,1.21.52,1.7c.39.48.98.75,1.61.75s1.14-.21,1.51-.62v.49h.74v-6.19h-.83Z"/>
  <path class="st1" d="M85.45,14.09v4.64h.84v-4.64h-.84ZM85.45,12.5v.83h.84v-.83h-.84Z"/>
  <path class="st1" d="M91.52,15.12c-.06-.14-.15-.27-.25-.4-.41-.5-1.04-.76-1.71-.76s-1.29.24-1.71.76c-.39.49-.54,1.08-.54,1.69s.15,1.2.54,1.69c.41.51,1.04.78,1.71.76.66.01,1.3-.25,1.71-.76.1-.12.18-.25.25-.39l-.78-.33c-.04.08-.08.15-.13.21-.24.31-.64.48-1.05.48s-.81-.16-1.05-.48-.31-.75-.33-1.18c0-.43.09-.86.33-1.18.24-.33.63-.49,1.05-.48.41,0,.81.15,1.05.48.05.07.09.15.14.22l.78-.33h0Z"/>
  <path class="st1" d="M92.38,14.09v4.64h.84v-4.64h-.84ZM92.38,12.5v.83h.84v-.83h-.84Z"/>
  <path class="st1" d="M97.91,14.4c-.36-.3-.86-.45-1.33-.42-.43.01-.9.16-1.24.48l-.09.09v-.45h-.75v4.64h.84v-2.36c0-.22,0-.43.05-.61.06-.29.19-.55.39-.72.19-.15.44-.24.7-.25.33,0,.62.08.83.25.39.31.45.82.45,1.41v2.29h.84v-2.29c0-.84-.09-1.54-.72-2.03"/>
  <path class="st1" d="M102.7,16.32c0,.29,0,.56-.15.88-.23.6-.96.91-1.54.88-.45-.03-.79-.38-.78-.76,0-.6.74-.72,1.42-.82.48-.09.78-.13,1.05-.17M100.34,15.32c.03-.05.07-.1.1-.15.23-.29.58-.42.98-.42.31,0,.64.07.88.25.21.15.33.38.37.63l-.9.13c-.7.1-1.18.14-1.67.42-.44.25-.7.7-.7,1.19,0,.34.1.6.3.88.25.33.72.58,1.2.6.39.01.79-.08,1.15-.27.29-.15.6-.42.75-.73v.88h.74v-2.91c0-.27-.06-.57-.19-.85-.34-.7-1.04-1-1.89-1-.72,0-1.33.25-1.75.8l-.12.18.76.37h0Z"/>
  <rect class="st1" x="67.37" y="21.22" width=".83" height="6.19"/>
  <path class="st1" d="M72.82,23.08c-.36-.3-.86-.45-1.33-.42-.43.01-.9.16-1.24.48l-.09.09v-.45h-.75v4.64h.84v-2.36c0-.22,0-.43.05-.61.06-.29.19-.55.39-.72.19-.15.44-.24.7-.25.33,0,.62.08.84.25.39.31.45.82.45,1.41v2.29h.84v-2.29c0-.84-.09-1.54-.72-2.03"/>
  <path class="st1" d="M75.9,23.45h1.39v-.68h-1.39v-1.29h-.83v1.29h-1.01v.68h1.01v2.17c0,.46.02.84.19,1.18.17.34.49.54.9.64.31.07.81.05,1.14-.03v-.73c-.24.04-.52.05-.76.03-.21-.03-.42-.15-.52-.33-.11-.18-.1-.43-.1-.81v-2.12h-.01Z"/>
  <path class="st1" d="M80.31,23.43c.42,0,.81.15,1.05.48.15.21.24.46.28.73h-2.66c.04-.27.13-.52.28-.73.24-.33.64-.49,1.05-.48M78.95,25.32h3.6c0-.08,0-.15,0-.23,0-.6-.15-1.21-.54-1.69-.42-.51-1.04-.76-1.72-.76s-1.3.26-1.71.76c-.39.48-.52,1.07-.54,1.69,0,.6.15,1.2.54,1.69.4.51,1.04.75,1.71.76.67.01,1.31-.24,1.75-.75.09-.12.18-.25.26-.39l-.82-.35c-.04.07-.08.14-.13.21-.24.31-.63.48-1.05.48s-.81-.16-1.05-.48c-.2-.26-.28-.6-.31-.94h0Z"/>
  <path class="st1" d="M85.66,22.65c-.35,0-.7.1-.99.33-.19.14-.33.29-.43.47v-.68h-.74v4.64h.83v-2.3c0-.56.04-1,.39-1.34.2-.21.5-.33.86-.34.27,0,.54.03.75.11v-.78c-.22-.09-.45-.12-.68-.1"/>
  <path class="st1" d="M90.05,26.33c-.25.29-.62.45-1.04.45s-.81-.16-1.05-.51c-.22-.3-.3-.74-.3-1.18s.09-.9.31-1.19c.24-.34.62-.5,1.06-.5.4,0,.78.15,1.01.45.26.31.36.78.36,1.24s-.1.94-.36,1.24M90.31,21.22v1.93c-.37-.33-.88-.52-1.41-.52-.63,0-1.23.26-1.61.74-.37.47-.52,1.09-.52,1.71s.14,1.21.52,1.7c.39.48.98.75,1.61.75s1.14-.21,1.51-.62v.49h.74v-6.19h-.83Z"/>
  <path class="st1" d="M92.43,22.77v4.64h.84v-4.64h-.84ZM92.43,21.18v.84h.84v-.84h-.84Z"/>
  <path class="st1" d="M98.19,23.99c-.15-.46-.52-.9-.97-1.12-.31-.16-.66-.23-.98-.23-.31,0-.66.03-1,.18-.45.2-.79.64-.79,1.15,0,.31.14.66.43.9.26.21.54.3.91.4.3.09.56.15.79.21.29.09.48.15.62.28.12.11.17.24.16.39-.02.15-.09.27-.22.38-.19.15-.55.19-.84.19-.35,0-.72-.08-.96-.35-.16-.17-.27-.46-.29-.69l-.8.2c.04.29.24.76.49,1.03.4.44.96.61,1.57.61.46,0,.93-.08,1.28-.31s.58-.58.62-1c.03-.43-.14-.79-.5-1.08-.28-.24-.55-.31-.9-.42-.33-.09-.62-.16-.84-.23-.29-.09-.45-.16-.57-.27-.07-.08-.1-.17-.1-.29,0-.15.1-.29.29-.39.17-.09.39-.13.64-.13.22,0,.45.05.63.15.24.12.43.36.52.61l.82-.2v.02Z"/>
  <path class="st1" d="M103.08,23.8c-.06-.14-.15-.27-.25-.4-.41-.5-1.04-.76-1.71-.76s-1.29.24-1.71.76c-.39.49-.54,1.08-.54,1.69s.15,1.2.54,1.69c.41.51,1.04.78,1.71.76.66.01,1.3-.25,1.71-.76.1-.12.18-.25.25-.39l-.78-.33c-.04.08-.07.15-.13.21-.24.31-.64.48-1.05.48s-.81-.16-1.05-.48-.31-.75-.33-1.18c0-.43.09-.86.33-1.18.24-.33.63-.49,1.05-.48.41,0,.81.15,1.05.48.05.07.09.15.14.23l.78-.33h0Z"/>
  <path class="st1" d="M103.93,22.77v4.64h.84v-4.64h-.84ZM103.93,21.18v.84h.84v-.84h-.84Z"/>
  <path class="st1" d="M109.25,26.27c-.24.34-.64.51-1.05.51s-.79-.15-1.04-.45c-.26-.31-.36-.78-.36-1.24s.1-.94.36-1.24c.23-.3.61-.45,1.01-.45.44,0,.82.15,1.06.5.22.3.31.74.31,1.19s-.08.88-.3,1.18M109.91,23.38c-.37-.48-.98-.74-1.61-.74-.58,0-1.12.22-1.51.61v-.48h-.74v6.7h.84v-2.46c.36.35.86.52,1.41.52.64,0,1.22-.27,1.61-.75.39-.49.52-1.09.52-1.7s-.15-1.24-.52-1.71h0Z"/>
  <rect class="st1" x="111.37" y="21.1" width=".83" height="6.32"/>
  <path class="st1" d="M113.49,22.77v4.64h.84v-4.64h-.84ZM113.49,21.18v.84h.84v-.84h-.84Z"/>
  <path class="st1" d="M119.03,23.08c-.36-.3-.86-.45-1.33-.42-.43.01-.9.16-1.24.48l-.09.09v-.45h-.75v4.64h.84v-2.36c0-.22,0-.43.05-.61.06-.29.19-.55.39-.72.19-.15.44-.24.7-.25.33,0,.62.08.83.25.39.31.45.82.45,1.41v2.29h.84v-2.29c0-.84-.09-1.54-.72-2.03"/>
  <path class="st1" d="M123.82,25c0,.29,0,.56-.15.88-.23.6-.96.91-1.54.88-.45-.03-.79-.38-.78-.76,0-.6.74-.72,1.42-.82.48-.09.78-.13,1.05-.17M121.46,24c.03-.05.07-.1.1-.15.23-.29.58-.42.98-.42.31,0,.64.07.88.25.21.15.33.38.37.63l-.9.13c-.7.1-1.18.14-1.67.42-.44.25-.7.7-.7,1.19,0,.34.1.6.3.88.25.33.72.58,1.2.6.39.01.79-.08,1.15-.27.29-.15.6-.42.75-.73v.88h.74v-2.91c0-.27-.06-.57-.19-.85-.34-.7-1.04-1-1.89-1-.72,0-1.33.25-1.75.8l-.12.18s.76.37.76.37Z"/>
  <path class="st1" d="M127.92,22.65c-.35,0-.7.1-.99.33-.19.14-.33.29-.43.47v-.68h-.74v4.64h.84v-2.3c0-.56.04-1,.39-1.34.2-.21.5-.33.86-.34.27,0,.54.03.75.11v-.78c-.22-.09-.45-.12-.68-.1"/>
  <path class="st1" d="M129.5,22.77v4.64h.84v-4.64h-.84ZM129.5,21.18v.84h.84v-.84h-.84Z"/>
  <path class="st1" d="M134.67,25c0,.29,0,.56-.15.88-.23.6-.96.91-1.54.88-.45-.03-.79-.38-.78-.76,0-.6.74-.72,1.42-.82.48-.09.78-.13,1.05-.17M132.31,24c.03-.05.07-.1.1-.15.23-.29.58-.42.98-.42.31,0,.64.07.88.25.21.15.33.38.37.63l-.9.13c-.7.1-1.18.14-1.67.42-.44.25-.7.7-.7,1.19,0,.34.1.6.3.88.25.33.72.58,1.2.6.39.01.79-.08,1.15-.27.29-.15.6-.42.75-.73v.88h.74v-2.91c0-.27-.06-.57-.19-.85-.34-.7-1.04-1-1.89-1-.72,0-1.33.25-1.75.8l-.12.18.76.37h0Z"/>
  <path class="st1" d="M70.64,31.45l-1.38,3.71-1.48-3.71h-.84l1.93,4.78c-.24.66-.39.94-.54,1.06-.12.07-.3.09-.46.07h-.15s0,.8,0,.8h.1c.34,0,.64-.03.92-.23s.49-.55.67-1.02l2.07-5.45h-.83,0Z"/>
  <polygon class="st1" points="78.51 29.91 73.51 29.91 73.51 30.74 75.6 30.74 75.6 36.1 76.42 36.1 76.42 30.74 78.51 30.74 78.51 29.91"/>
  <path class="st1" d="M80.93,31.33c-.35,0-.7.1-.99.33-.19.14-.33.29-.43.47v-.68h-.74v4.64h.84v-2.3c0-.56.04-1,.39-1.34.2-.21.5-.33.86-.34.27,0,.54.03.75.11v-.78c-.22-.09-.45-.12-.68-.1"/>
  <path class="st1" d="M85.3,33.69c0,.29,0,.56-.15.88-.23.6-.96.91-1.54.88-.45-.03-.79-.37-.78-.76,0-.6.74-.72,1.42-.82.48-.09.78-.13,1.05-.17M82.94,32.68c.03-.05.07-.1.1-.15.23-.29.58-.42.98-.42.31,0,.64.07.88.25.21.15.33.38.37.63l-.9.13c-.7.1-1.18.14-1.67.42-.44.25-.7.7-.7,1.19,0,.34.1.6.3.88.25.33.72.58,1.2.6.39.01.79-.08,1.15-.27.29-.15.6-.42.75-.73v.88h.74v-2.91c0-.27-.06-.57-.19-.85-.34-.7-1.04-1-1.89-1-.72,0-1.33.25-1.75.8l-.12.18.76.37h0Z"/>
  <path class="st1" d="M91.08,32.68c-.15-.46-.52-.9-.97-1.12-.31-.16-.66-.23-.98-.23-.31,0-.66.03-1,.18-.45.2-.79.64-.79,1.15,0,.31.14.66.43.9.26.21.54.3.91.4.3.09.56.15.79.21.29.09.48.15.62.28.12.11.17.24.16.39-.02.15-.09.27-.22.38-.19.15-.55.19-.84.19-.35,0-.72-.08-.96-.35-.16-.17-.27-.46-.29-.69l-.8.2c.04.29.24.76.49,1.03.4.44.96.61,1.57.61.46,0,.93-.08,1.29-.31.35-.22.58-.58.62-1,.03-.43-.14-.79-.5-1.08-.28-.24-.55-.31-.9-.42-.33-.09-.62-.16-.84-.23-.29-.09-.45-.16-.57-.27-.07-.08-.1-.17-.1-.29,0-.15.1-.29.29-.39.17-.09.39-.13.64-.13.22,0,.45.05.63.15.24.12.43.36.52.61l.82-.2v.02Z"/>
  <path class="st1" d="M95.2,34.96c-.24.34-.64.51-1.05.51s-.79-.15-1.04-.45c-.26-.31-.36-.78-.36-1.24s.1-.94.36-1.24c.23-.3.61-.45,1.01-.45.43,0,.82.15,1.06.5.22.3.31.74.31,1.19s-.08.88-.3,1.18M95.86,32.07c-.38-.48-.98-.74-1.61-.74-.58,0-1.12.22-1.51.61v-.48h-.74v6.7h.84v-2.46c.36.35.86.52,1.41.52.64,0,1.22-.27,1.61-.75.39-.49.52-1.09.52-1.7s-.15-1.24-.52-1.71h0Z"/>
  <rect class="st1" x="97.33" y="29.78" width=".84" height="6.32"/>
  <path class="st1" d="M102.42,33.69c0,.29,0,.56-.15.88-.23.6-.96.91-1.54.88-.45-.03-.79-.37-.78-.76,0-.6.74-.72,1.42-.82.48-.09.78-.13,1.05-.17M100.05,32.68c.03-.05.07-.1.1-.15.23-.29.58-.42.98-.42.31,0,.64.07.88.25.21.15.33.38.37.63l-.9.13c-.7.1-1.18.14-1.67.42-.44.25-.7.7-.7,1.19,0,.34.1.6.3.88.25.33.72.58,1.2.6.39.01.79-.08,1.15-.27.29-.15.6-.42.75-.73v.88h.74v-2.91c0-.27-.06-.57-.19-.85-.34-.7-1.04-1-1.89-1-.72,0-1.33.25-1.75.8l-.12.18.76.37h0Z"/>
  <path class="st1" d="M107.77,31.77c-.36-.3-.86-.45-1.33-.42-.43.01-.9.16-1.24.48l-.09.09v-.45h-.75v4.64h.84v-2.36c0-.22,0-.43.05-.61.06-.29.19-.55.39-.72.19-.15.44-.24.7-.25.33,0,.62.08.83.25.39.31.45.82.45,1.41v2.29h.84v-2.29c0-.84-.09-1.54-.72-2.03"/>
  <path class="st1" d="M110.84,32.14h1.39v-.68h-1.39v-1.29h-.83v1.29h-1.01v.68h1.01v2.17c0,.46.02.84.19,1.18.17.34.49.54.9.64.31.07.81.05,1.14-.03v-.73c-.24.04-.52.05-.76.03-.21-.03-.42-.15-.53-.33-.11-.18-.1-.43-.1-.81v-2.12h0Z"/>
  <path class="st1" d="M115.26,32.11c.42,0,.81.15,1.05.48.15.21.24.46.28.73h-2.66c.04-.27.13-.52.28-.73.24-.33.64-.49,1.05-.48M113.9,34.01h3.6c0-.08,0-.15,0-.23,0-.6-.15-1.21-.54-1.69-.42-.51-1.04-.76-1.72-.76s-1.3.26-1.71.76c-.39.48-.52,1.07-.54,1.69,0,.6.15,1.2.54,1.69.4.51,1.04.75,1.71.76.67.01,1.31-.24,1.75-.75.09-.12.18-.25.26-.39l-.82-.35c-.04.07-.08.14-.13.21-.24.31-.63.48-1.05.48s-.81-.16-1.05-.48c-.2-.26-.28-.6-.31-.94h0Z"/>
  <path class="st1" d="M121.96,32.68c-.15-.46-.52-.9-.97-1.12-.31-.16-.66-.23-.98-.23-.31,0-.66.03-1,.18-.45.2-.79.64-.79,1.15,0,.31.14.66.43.9.26.21.54.3.91.4.3.09.56.15.79.21.29.09.48.15.62.28.12.11.17.24.16.39-.02.15-.09.27-.23.38-.19.15-.55.19-.84.19-.35,0-.72-.08-.96-.35-.16-.17-.27-.46-.29-.69l-.8.2c.04.29.24.76.49,1.03.4.44.96.61,1.57.61.46,0,.93-.08,1.29-.31.35-.22.58-.58.62-1,.03-.43-.14-.79-.5-1.08-.28-.24-.55-.31-.9-.42-.33-.09-.62-.16-.84-.23-.29-.09-.45-.16-.57-.27-.07-.08-.1-.17-.1-.29,0-.15.1-.29.29-.39.17-.09.39-.13.64-.13.22,0,.45.05.63.15.24.12.43.36.52.61l.82-.2v.02Z"/>
  <path class="st0" d="M33.98,7.68c.51,0,.9-.09,1.18-.28.28-.19.48-.49.59-.89.12-.4.17-.96.17-1.68s-.06-1.28-.18-1.7c-.12-.42-.32-.74-.6-.94-.28-.2-.67-.31-1.18-.31s-.9.1-1.18.3c-.28.2-.48.51-.6.93-.12.42-.18.98-.18,1.69s.06,1.26.17,1.68c.12.41.32.71.6.91.29.19.68.29,1.19.29M33.98,8.37c-.69,0-1.24-.12-1.64-.37s-.69-.63-.86-1.14-.25-1.19-.25-2.04.09-1.52.26-2.05c.18-.53.46-.92.86-1.18.4-.26.94-.39,1.62-.39s1.22.13,1.62.39.69.65.87,1.18.27,1.22.27,2.07-.08,1.53-.25,2.04c-.17.51-.45.88-.86,1.13-.4.24-.95.37-1.64.37h.01ZM28.44,5.24c.96,0,1.44-.56,1.44-1.69,0-.54-.12-.94-.34-1.19s-.59-.37-1.1-.37h-1.76v3.25h1.76ZM25.91,1.31h2.54c.76,0,1.32.18,1.68.55.36.37.54.93.54,1.7,0,1.58-.74,2.37-2.22,2.37h-1.77v2.35h-.77s0-6.96,0-6.96ZM22.06,8.37c-.82,0-1.43-.18-1.83-.53s-.6-.91-.6-1.69V1.3h.77v4.87c0,1.01.54,1.51,1.63,1.51.57,0,1-.12,1.28-.36.28-.24.42-.62.42-1.14V1.31h.76v4.85c0,.76-.2,1.33-.61,1.68-.4.35-1.02.53-1.84.53ZM16.32,4.92c.95,0,1.42-.49,1.42-1.47s-.48-1.46-1.43-1.46h-1.8v2.93h1.81ZM13.73,1.31h2.58c.75,0,1.3.17,1.67.52.37.34.55.88.55,1.59,0,1.08-.43,1.75-1.28,2.02l1.34,2.83h-.86l-1.26-2.67h-1.97v2.67h-.77s0-6.96,0-6.96ZM10.2,8.37c-.67,0-1.2-.13-1.59-.38-.39-.25-.67-.64-.85-1.16-.17-.52-.25-1.2-.25-2.04s.08-1.51.25-2.03c.17-.53.45-.91.84-1.17.39-.25.92-.38,1.58-.38.6,0,1.25.07,1.94.2l.34.06-.03.64c-.83-.14-1.55-.21-2.16-.21-.51,0-.91.09-1.19.29-.29.19-.49.49-.6.91-.12.41-.17.98-.17,1.7s.06,1.28.17,1.7.31.71.59.91c.28.19.68.29,1.19.29.45,0,.93-.05,1.44-.14v-2.15h-1.16v-.7h1.92v3.42c-.85.16-1.6.24-2.26.24v-.02Z"/>
</svg>